# xmcd
#
# Track frame offsets:
#	150
#	10930
#	23392
#	37480
#	48412
#	64367
#	75590
#	95007
#	119282
#	134477
#	145215
#	159777
#	171952
#	186690
#	197302
#	211440
#	230527
#	245572
#
# Disc length: 3440 seconds
#
# Revision: 3
# Processed by: cddbd v1.4PL0 Copyright (c) Steve Scherf et al.
# Submitted via: audiograbber 1.82.02
#
DISCID=010d6e12
DTITLE=Various Artist - Bluesville Vol. 2 Electric Blues
DYEAR=1900
DGENRE=
TTITLE0=Eddie Kirkland - Train Done Gone
TTITLE1=Billy Boy Arnold - You Better Cut That Out
TTITLE2=Homesick James - Homesick´s Blues
TTITLE3=Roosevelt Sykes - Driving Wheel
TTITLE4=Jimmy Witherspoon - It´s A Lonesome Old World
TTITLE5=Memphis Slim - Rack ´Em Back Jack
TTITLE6=Lonnie Johnson - Jelly Roll Baker
TTITLE7=Lightnin´ Hopkins - Happy Blues For John Glenn
TTITLE8=Sonny Terry - My Baby Done Gone
TTITLE9=Billy Boy Arnold - School Time
TTITLE10=Lonnie Johnson - Big Leg Woman
TTITLE11=King Curtis - I Have To Worry
TTITLE12=Roosevelt Sykes - Calcutta
TTITLE13=Eddie Kirkland - Down On My Knees
TTITLE14=Buddy Lucas - Show Down
TTITLE15=Lightnin´ Hopkins - Devil Jumped The Black Man
TTITLE16=Homesick James - Stones In My Passway
TTITLE17=Jimmy Witherspoon - How Long, How Long Blues
EXTD=
EXTT0=
EXTT1=
EXTT2=
EXTT3=
EXTT4=
EXTT5=
EXTT6=
EXTT7=
EXTT8=
EXTT9=
EXTT10=
EXTT11=
EXTT12=
EXTT13=
EXTT14=
EXTT15=
EXTT16=
EXTT17=
PLAYORDER=
